<svg xmlns="http://www.w3.org/2000/svg" style="width:0; height:0; visibility:hidden;">
    <symbol id="icon_arrow_left" viewBox="0 0 129 129">
       <g> <path d="m88.6,121.3c0.8,0.8 1.8,1.2 2.9,1.2s2.1-0.4 2.9-1.2c1.6-1.6 1.6-4.2 0-5.8l-51-51 51-51c1.6-1.6 1.6-4.2 0-5.8s-4.2-1.6-5.8,0l-54,53.9c-1.6,1.6-1.6,4.2 0,5.8l54,53.9z"/> </g> 
    </symbol>
    <symbol id="icon_star" viewBox="0 0 20 21">
      <title/><desc/><g id="Page-1"><g id="Core" transform="translate(-296.000000, -422.000000)"><g id="star" transform="translate(296.000000, 422.500000)"><path d="M10,15.273 L16.18,19 L14.545,11.971 L20,7.244 L12.809,6.627 L10,0 L7.191,6.627 L0,7.244 L5.455,11.971 L3.82,19 L10,15.273 Z" id="Shape"/></g></g></g>
    </symbol>
    <symbol id="icon_facebook" viewBox="0 0 8 15">
        <path id="logo_-_Facebook" data-name="logo - Facebook" class="cls-1" d="M1382,43V36h-3V34h3V31c0-2.338,1.18-3,3.23-3a9.871,9.871,0,0,1,1.74.14v2.367h-1.74c-1.11,0-1.23,1.7-1.23,2.489v1h3l-0.5,2H1384v7h-2Z" transform="translate(-1379 -28)"/> 
    </symbol>
    <symbol id="icon_instagram" viewBox="0 0 510 510">
       <g> <g id="post-instagram"> <path d="M459,0H51C22.95,0,0,22.95,0,51v408c0,28.05,22.95,51,51,51h408c28.05,0,51-22.95,51-51V51C510,22.95,487.05,0,459,0z
			 M255,153c56.1,0,102,45.9,102,102c0,56.1-45.9,102-102,102c-56.1,0-102-45.9-102-102C153,198.9,198.9,153,255,153z M63.75,459
			C56.1,459,51,453.9,51,446.25V229.5h53.55C102,237.15,102,247.35,102,255c0,84.15,68.85,153,153,153c84.15,0,153-68.85,153-153
			c0-7.65,0-17.85-2.55-25.5H459v216.75c0,7.65-5.1,12.75-12.75,12.75H63.75z M459,114.75c0,7.65-5.1,12.75-12.75,12.75h-51
			c-7.65,0-12.75-5.1-12.75-12.75v-51c0-7.65,5.1-12.75,12.75-12.75h51C453.9,51,459,56.1,459,63.75V114.75z"/> </g> </g>                
    </symbol>
    <symbol id="icon_twitter" viewBox="0 0 16 13">
        <path id="logo_-_Twitter" data-name="logo - Twitter" class="cls-1" d="M1351,30.5l-1.5,1.5v0.249a2.943,2.943,0,0,1-.11.788,8.772,8.772,0,0,1-3.39,6.943c-5.31,4.238-11,.5-11,0.5,4.5,0,4.5-1.5,4.5-1.5-1,0-3-1.995-3-1.995a1.515,1.515,0,0,0,1.5,0c-2.5-1.5-2.5-2.993-2.5-2.993a1.516,1.516,0,0,0,1.5,0,3.44,3.44,0,0,1-1-4.489c0.5,2.494,7,3.491,7,3.491l0.08-.041a6.012,6.012,0,0,1-.08-0.956A3.04,3.04,0,0,1,1346.25,29a3.239,3.239,0,0,1,2.46,1.143L1349,30l1.5-1-1,2Z" transform="translate(-1335 -29)"/> 
    </symbol></svg>